<?xml version="1.0" encoding="UTF-8"?><svg id="Calque_1" xmlns="http://www.w3.org/2000/svg" viewBox="0 0 996.35 391.34"><defs><style>.cls-1{fill:#f8d506;}.cls-2{fill:#e95929;}.cls-3{fill:#ff80eb;}.cls-4{fill:#08172e;}.cls-5{fill:#42dc80;}.cls-6{fill:#191d31;}.cls-7{fill:#4f53de;}</style></defs><rect id="POINT" class="cls-4" x="948.39" y="241.39" width="47.95" height="49.86"/><rect id="POINT-2" class="cls-4" x="650.7" y="241.39" width="47.95" height="49.86"/><path class="cls-4" d="m52.45,387.55v-41.59l-16.33,30.97h-6.87l-16.24-30.97v41.59H.68v-63.37h13.3l18.65,35.97,18.83-35.97h13.21v63.37h-12.23Z"/><path class="cls-4" d="m77.89,387.55v-63.37h12.32v63.37h-12.32Z"/><path class="cls-4" d="m147.42,376.75v10.8h-44v-63.37h43.2v10.8h-30.88v15.26h26.6v10h-26.6v16.51h31.69Z"/><path class="cls-4" d="m183.84,388c-5,0-9.27-.85-12.81-2.54-3.54-1.7-6.4-4.03-8.57-7.01-2.17-2.97-3.76-6.35-4.77-10.13-1.01-3.78-1.52-7.72-1.52-11.83v-32.31h12.23v32.31c0,2.62.28,5.16.85,7.63.57,2.47,1.43,4.69,2.59,6.65,1.16,1.96,2.72,3.51,4.69,4.64,1.96,1.13,4.4,1.7,7.32,1.7s5.52-.58,7.45-1.74c1.93-1.16,3.49-2.72,4.69-4.69,1.19-1.96,2.05-4.18,2.59-6.65.54-2.47.8-4.98.8-7.54v-32.31h12.23v32.31c0,4.28-.54,8.34-1.61,12.18-1.07,3.84-2.71,7.2-4.91,10.09-2.2,2.88-5.06,5.15-8.57,6.78-3.51,1.64-7.74,2.45-12.67,2.45Z"/><path class="cls-4" d="m230.61,324.18l15.62,23.47,15.71-23.47h13.39l-21.96,32.13,21.24,31.24h-13.39l-14.99-22.58-14.91,22.58h-13.48l21.24-31.24-21.96-32.13h13.48Z"/><path class="cls-4" d="m346.11,376.75v10.8h-44v-63.37h43.2v10.8h-30.88v15.26h26.6v10h-26.6v16.51h31.69Z"/><path class="cls-4" d="m368.06,346.85v40.7h-12.32v-63.37h9.91l32.67,41.77v-41.68h12.23v63.28h-10.17l-32.31-40.7Z"/><path class="cls-4" d="m471.15,334.98h-20.17v52.57h-12.23v-52.57h-20.35v-10.8h52.75v10.8Z"/><path class="cls-4" d="m479.09,387.55v-63.37h28.12c2.85,0,5.52.6,7.99,1.79,2.47,1.19,4.61,2.8,6.42,4.82,1.82,2.02,3.21,4.28,4.2,6.78.98,2.5,1.47,5.06,1.47,7.67s-.46,5.24-1.38,7.68-2.25,4.6-3.97,6.47-3.75,3.32-6.07,4.33l14.46,23.83h-13.57l-13.03-21.24h-12.32v21.24h-12.32Zm12.32-32.04h15.44c1.55,0,2.92-.46,4.11-1.38,1.19-.92,2.14-2.15,2.86-3.7.72-1.55,1.07-3.27,1.07-5.18s-.42-3.72-1.25-5.26c-.83-1.55-1.87-2.77-3.12-3.66-1.25-.89-2.62-1.34-4.11-1.34h-15v20.53Z"/><path class="cls-4" d="m582.45,376.75v10.8h-44v-63.37h43.2v10.8h-30.88v15.26h26.6v10h-26.6v16.51h31.69Z"/><path class="cls-4" d="m592.09,387.55v-63.37h26.87c2.92,0,5.61.6,8.08,1.79,2.47,1.19,4.6,2.8,6.38,4.82,1.79,2.02,3.17,4.28,4.15,6.78.98,2.5,1.47,5.06,1.47,7.67,0,3.51-.8,6.89-2.41,10.13-1.61,3.24-3.88,5.88-6.83,7.9s-6.38,3.03-10.31,3.03h-15.08v21.24h-12.32Zm12.32-32.04h14.28c1.55,0,2.92-.41,4.11-1.25,1.19-.83,2.13-2.04,2.81-3.61s1.03-3.38,1.03-5.4c0-2.2-.4-4.06-1.21-5.58s-1.84-2.68-3.12-3.48c-1.28-.8-2.66-1.21-4.15-1.21h-13.75v20.53Z"/><path class="cls-4" d="m647.7,387.55v-63.37h28.12c2.85,0,5.52.6,7.99,1.79,2.47,1.19,4.61,2.8,6.42,4.82,1.82,2.02,3.21,4.28,4.2,6.78.98,2.5,1.47,5.06,1.47,7.67s-.46,5.24-1.38,7.68c-.92,2.44-2.25,4.6-3.97,6.47s-3.75,3.32-6.07,4.33l14.46,23.83h-13.57l-13.03-21.24h-12.32v21.24h-12.32Zm12.32-32.04h15.44c1.55,0,2.92-.46,4.11-1.38,1.19-.92,2.14-2.15,2.86-3.7.72-1.55,1.07-3.27,1.07-5.18s-.42-3.72-1.25-5.26c-.83-1.55-1.87-2.77-3.12-3.66-1.25-.89-2.62-1.34-4.11-1.34h-15v20.53Z"/><path class="cls-4" d="m751.06,376.75v10.8h-44v-63.37h43.2v10.8h-30.88v15.26h26.6v10h-26.6v16.51h31.69Z"/><path class="cls-4" d="m773.01,346.85v40.7h-12.32v-63.37h9.91l32.67,41.77v-41.68h12.23v63.28h-10.17l-32.31-40.7Z"/><path class="cls-4" d="m828.8,387.55v-63.37h23.03c6.9,0,12.67,1.42,17.32,4.24,4.64,2.83,8.12,6.64,10.44,11.43,2.32,4.79,3.48,10.1,3.48,15.93,0,6.43-1.28,12.02-3.84,16.78-2.56,4.76-6.17,8.45-10.84,11.07-4.67,2.62-10.19,3.93-16.56,3.93h-23.03Zm41.86-31.78c0-4.11-.74-7.72-2.23-10.85-1.49-3.12-3.63-5.56-6.43-7.32-2.8-1.75-6.19-2.63-10.17-2.63h-10.71v41.77h10.71c4.11,0,7.54-.92,10.31-2.77,2.77-1.84,4.88-4.35,6.34-7.5,1.46-3.15,2.18-6.73,2.18-10.71Z"/><path class="cls-4" d="m892.7,387.55v-63.37h28.12c2.85,0,5.52.6,7.99,1.79,2.47,1.19,4.61,2.8,6.42,4.82,1.82,2.02,3.21,4.28,4.2,6.78.98,2.5,1.47,5.06,1.47,7.67s-.46,5.24-1.38,7.68-2.25,4.6-3.97,6.47-3.75,3.32-6.07,4.33l14.46,23.83h-13.57l-13.03-21.24h-12.32v21.24h-12.32Zm12.32-32.04h15.44c1.55,0,2.92-.46,4.11-1.38,1.19-.92,2.14-2.15,2.86-3.7.72-1.55,1.07-3.27,1.07-5.18s-.42-3.72-1.25-5.26c-.83-1.55-1.87-2.77-3.12-3.66-1.25-.89-2.62-1.34-4.11-1.34h-15v20.53Z"/><path class="cls-4" d="m996.06,376.75v10.8h-44v-63.37h43.2v10.8h-30.88v15.26h26.6v10h-26.6v16.51h31.69Z"/><polygon class="cls-6" points="624.84 0 624.84 291.38 566.56 291.38 566.56 114.1 491.34 247.58 455.38 247.58 380.57 114.45 380.57 291.38 322.71 291.38 322.71 0 376.43 0 474.39 179.26 572.34 0 624.84 0"/><path class="cls-4" d="m723.67,291.39V0h199.63v50.01h-138.05v68.2h128.54v50.01h-128.54v73.16h138.05v50.01h-199.63Z"/><polygon class="cls-1" points="144.96 145.68 144.96 290.02 104.98 290.02 104.98 216.23 30.57 290.65 1.43 261.48 74.82 188.1 1.43 188.1 1.83 145.68 144.96 145.68"/><circle class="cls-2" cx="72.48" cy="73.22" r="72.48"/><path class="cls-7" d="m144.95.74v144.95c40.03,0,72.48-32.45,72.48-72.48S184.98.74,144.95.74Z"/><path class="cls-5" d="m217.43.74v144.95c40.03,0,72.48-32.45,72.48-72.48S257.46.74,217.43.74Z"/><path class="cls-3" d="m144.96,145.68v144.34h-.47v.62h144.96v-144.96h-144.5Zm72.01,110.93c-21.22,0-38.45-17.2-38.45-38.45s17.23-38.45,38.45-38.45,38.45,17.23,38.45,38.45-17.23,38.45-38.45,38.45Z"/><rect class="cls-3" x="144.49" y="145.68" width=".47" height="144.34"/></svg>